<svg width="32" height="32" viewBox="0 0 32 32" fill="none" xmlns="http://www.w3.org/2000/svg">
<path d="M27.107 6.07462C25.0084 5.09271 22.7882 4.39502 20.5052 4C20.2209 4.51412 19.8886 5.20562 19.6595 5.75575C17.198 5.38562 14.7591 5.38562 12.3429 5.75575C12.1139 5.20575 11.7741 4.51412 11.4871 4C9.20186 4.39521 6.97981 5.09467 4.88024 6.07975C0.702241 12.3934 -0.430384 18.55 0.135866 24.6195C2.90699 26.6889 5.59249 27.946 8.23274 28.7686C8.88891 27.8663 9.46894 26.9109 9.96686 25.9125C9.0189 25.5516 8.10502 25.1068 7.23611 24.5835C7.46478 24.414 7.68805 24.2374 7.90561 24.0539C13.1709 26.5166 18.8919 26.5166 24.0944 24.0539C24.3129 24.2362 24.5361 24.4128 24.7637 24.5835C23.8934 25.1082 22.9778 25.5539 22.028 25.9151C22.5287 26.9176 23.1077 27.8739 23.7621 28.7711C26.4049 27.9486 29.0929 26.6915 31.864 24.6195C32.5285 17.5835 30.729 11.4832 27.107 6.0745V6.07462ZM10.6842 20.8869C9.10361 20.8869 7.80736 19.4112 7.80736 17.6144C7.80736 15.8175 9.07599 14.3394 10.6842 14.3394C12.2926 14.3394 13.5887 15.8149 13.5611 17.6144C13.5636 19.4112 12.2926 20.8869 10.6842 20.8869ZM21.3156 20.8869C19.735 20.8869 18.4389 19.4112 18.4389 17.6144C18.4389 15.8175 19.7074 14.3394 21.3156 14.3394C22.924 14.3394 24.2201 15.8149 24.1925 17.6144C24.1925 19.4112 22.924 20.8869 21.3156 20.8869Z" fill="url(#paint0_linear_289_272)"/>
<defs>
<linearGradient id="paint0_linear_289_272" x1="41.0286" y1="-1.77992" x2="-11.8023" y2="10.6847" gradientUnits="userSpaceOnUse">
<stop stop-color="#EA3944"/>
<stop offset="1" stop-color="#4F18F5"/>
</linearGradient>
</defs>
</svg>
