<svg width="32" height="32" viewBox="0 0 32 32" fill="none" xmlns="http://www.w3.org/2000/svg">
<path fill-rule="evenodd" clip-rule="evenodd" d="M29.3066 2.68274C30.1123 3.48686 30.741 4.45009 31.1523 5.51076C31.6267 6.76913 31.8798 8.09984 31.9004 9.44422C32 11.1421 32 11.6922 32 16.0264V16.0266C32 20.3611 31.9769 20.9022 31.9004 22.609C31.8738 23.9361 31.6232 25.2455 31.1559 26.4875C30.744 27.548 30.1151 28.5112 29.3096 29.3155C28.504 30.1199 27.5393 30.7477 26.4771 31.159C25.2336 31.6241 23.9202 31.8755 22.5926 31.9024C20.8956 32 20.3394 32 16 32C11.6606 32 11.1186 31.9769 9.40736 31.9024C8.07706 31.8587 6.76398 31.5887 5.52465 31.104C4.46212 30.6934 3.49707 30.066 2.69113 29.262C1.8852 28.4579 1.25611 27.4948 0.844068 26.4342C0.376721 25.1905 0.126166 23.8811 0.0995112 22.554C0 20.8561 0 20.3043 0 15.9716C0 11.6372 0.0231008 11.096 0.0995112 9.38922C0.125481 8.06358 0.377262 6.75203 0.844068 5.51076C1.25496 4.44981 1.88343 3.48634 2.68917 2.68215C3.49491 1.87797 4.46012 1.25083 5.52287 0.840985C6.76455 0.373655 8.07709 0.121635 9.40381 0.0958082C11.1008 0 11.657 0 15.9964 0C20.3358 0 20.8778 0.0212906 22.589 0.0958082C23.9168 0.123027 25.2302 0.374996 26.4735 0.840985C27.536 1.25131 28.501 1.87862 29.3066 2.68274ZM28.4353 25.4176C28.7896 24.4582 28.9765 23.4452 28.988 22.4227V22.4245H29.0075C29.0839 20.7284 29.0839 20.2635 29.0839 15.9418V15.9415C29.0839 11.6177 29.0644 11.1439 28.988 9.45664C28.9714 8.44562 28.7846 7.44458 28.4353 6.49545C28.1683 5.80541 27.7597 5.17872 27.2358 4.65563C26.7119 4.13254 26.0842 3.72459 25.3931 3.45797C24.4431 3.10503 23.4392 2.91836 22.4256 2.90619C20.7072 2.80861 20.263 2.8086 15.9325 2.8086C11.6019 2.8086 11.1275 2.8299 9.43757 2.90619C8.42474 2.92032 7.42174 3.10692 6.47178 3.45797C5.06974 3.99379 3.95912 5.09559 3.41714 6.49545C3.06291 7.45428 2.87599 8.46666 2.8645 9.48858C2.77032 11.2078 2.77032 11.6496 2.77032 15.9734C2.77032 20.2954 2.78809 20.7709 2.8645 22.4564C2.88105 23.4674 3.06787 24.4685 3.41714 25.4176C3.68518 26.1089 4.09556 26.7363 4.62174 27.2592C5.14793 27.7821 5.7782 28.1889 6.47178 28.4533C7.42127 28.8061 8.42456 28.9927 9.43757 29.0051C11.1577 29.1027 11.6002 29.1027 15.9325 29.1027C20.2612 29.1027 20.7374 29.0832 22.4256 29.0051C23.4391 28.992 24.4428 28.8054 25.3931 28.4533C26.0843 28.1873 26.712 27.7797 27.236 27.2569C27.7599 26.7341 28.1685 26.1076 28.4353 25.4176ZM24.5296 9.3679C25.5875 9.3679 26.4452 8.51159 26.4452 7.45528C26.4452 6.39897 25.5875 5.54267 24.5296 5.54267C23.4716 5.54267 22.614 6.39897 22.614 7.45528C22.614 8.51159 23.4716 9.3679 24.5296 9.3679ZM15.9876 7.75701C13.8083 7.75701 11.7184 8.62136 10.1774 10.1599C8.63648 11.6985 7.77078 13.7852 7.77078 15.961C7.77078 18.1369 8.63648 20.2236 10.1774 21.7622C11.7184 23.3007 13.8083 24.1651 15.9876 24.1651C18.1668 24.1651 20.2568 23.3007 21.7977 21.7622C23.3387 20.2236 24.2044 18.1369 24.2044 15.961C24.2044 13.7852 23.3387 11.6985 21.7977 10.1599C20.2568 8.62136 18.1668 7.75701 15.9876 7.75701ZM15.9876 21.2891C14.5718 21.2891 13.2141 20.7275 12.213 19.728C11.2119 18.7285 10.6495 17.3728 10.6495 15.9593C10.6495 14.5457 11.2119 13.1901 12.213 12.1905C13.2141 11.191 14.5718 10.6295 15.9876 10.6295C17.4033 10.6295 18.7611 11.191 19.7622 12.1905C20.7632 13.1901 21.3256 14.5457 21.3256 15.9593C21.3256 17.3728 20.7632 18.7285 19.7622 19.728C18.7611 20.7275 17.4033 21.2891 15.9876 21.2891Z" fill="url(#paint0_linear_289_267)"/>
<defs>
<linearGradient id="paint0_linear_289_267" x1="41.0284" y1="-7.46665" x2="-12.9428" y2="2.39041" gradientUnits="userSpaceOnUse">
<stop stop-color="#EA3944"/>
<stop offset="1" stop-color="#4F18F5"/>
</linearGradient>
</defs>
</svg>
