<svg width="90" height="90" viewBox="0 0 90 90" fill="none" xmlns="http://www.w3.org/2000/svg">
<path fill-rule="evenodd" clip-rule="evenodd" d="M45 90C69.8514 90 90 69.8514 90 45C90 20.1486 69.8566 0 45 0C20.1486 0 0 20.1486 0 45C0 69.8514 20.1486 90 45 90ZM74.38 52.8137V49.9149C74.38 49.6467 74.1211 49.4525 73.8668 49.5265L60.1771 53.4841C60.1032 53.5026 60.0384 53.5442 59.9876 53.5997C58.521 55.2196 57.2747 56.3067 56.9449 56.5944L56.9223 56.6141C56.0716 57.3353 55.0175 57.7283 53.9079 57.7283H48.9517V52.675H52.8908C52.9925 52.675 53.0896 52.638 53.1635 52.5733L53.6721 52.1063C53.8894 51.9075 54.1483 51.6671 54.4581 51.3573L54.5373 51.2783L54.5374 51.2782C54.7003 51.1158 54.8744 50.9423 55.0452 50.7517C55.2487 50.5529 55.4475 50.331 55.6324 50.1137C55.9422 49.7808 56.2381 49.434 56.5478 49.0688C56.7697 48.8284 56.9732 48.5556 57.172 48.2828C57.3939 48.0239 57.6112 47.7327 57.8146 47.4553C57.8899 47.3447 57.97 47.2329 58.0519 47.1186L58.052 47.1184C58.1309 47.0083 58.2114 46.8959 58.2908 46.7802C58.4388 46.5583 58.5867 46.3225 58.7115 46.1006C59.0999 45.4996 59.4282 44.8569 59.7056 44.2143C59.8327 43.9395 59.9343 43.6503 60.0331 43.369L60.0331 43.3689L60.0708 43.2619C60.1818 42.9336 60.2742 42.6239 60.3436 42.2956C60.51 41.5235 60.547 40.756 60.473 39.9886C60.4545 39.7482 60.436 39.5124 60.3806 39.2904V39.2535C60.3621 39.0963 60.3251 38.9206 60.2742 38.7588C60.1078 38.0098 59.8489 37.2608 59.5206 36.5257C59.4097 36.2529 59.2802 35.9755 59.1554 35.7212C58.8595 35.1711 58.5497 34.6209 58.1984 34.0892C58.1278 33.9768 58.0498 33.863 57.972 33.7493L57.9719 33.7492C57.9121 33.6618 57.8524 33.5746 57.7961 33.4882C57.5734 33.1446 57.323 32.8135 57.08 32.4921L57.08 32.4921L57.0799 32.492C57.0253 32.4198 56.9711 32.3481 56.9177 32.2769C56.7743 32.0886 56.6174 31.9004 56.4594 31.7109L56.4589 31.7103L56.4578 31.709C56.3719 31.6059 56.2856 31.5024 56.2011 31.3984C55.9607 31.1071 55.7249 30.8297 55.4845 30.557C54.6245 29.5861 53.723 28.7076 52.9185 27.9587C52.7706 27.8107 52.6087 27.6628 52.4423 27.5194C51.8181 26.9508 51.2495 26.4561 50.7733 26.0723C50.6299 25.962 50.5014 25.8534 50.3817 25.7523L50.3815 25.7522L50.3814 25.7521C50.3005 25.6837 50.2237 25.6188 50.1491 25.5591C50.0026 25.45 49.8757 25.3533 49.7696 25.2724L49.7694 25.2723C49.7367 25.2473 49.7059 25.2239 49.6772 25.2021C49.6492 25.1809 49.6231 25.1611 49.599 25.143C49.562 25.1153 49.5204 25.0968 49.4787 25.0829L48.9517 24.935V20.5706C48.9517 19.8586 48.665 19.2206 48.2073 18.7536C47.7496 18.2866 47.1116 18 46.4089 18C45.0034 18 43.866 19.1512 43.866 20.5706V23.511L43.6025 23.437L42.8859 23.2336L42.234 23.0533C42.2321 23.0533 42.2302 23.0525 42.2279 23.0516C42.2259 23.0508 42.2237 23.0498 42.2209 23.0493C42.2193 23.0489 42.2175 23.0487 42.2155 23.0487H42.2016L37.2546 21.7079C37.0374 21.6478 36.8524 21.8836 36.9634 22.0824L37.754 23.5434C37.7989 23.6559 37.8559 23.7683 37.9145 23.8839C37.9522 23.9584 37.9906 24.0341 38.0268 24.112C38.1562 24.371 38.2857 24.6437 38.4105 24.9165C38.5214 25.1569 38.6324 25.3927 38.7619 25.6516C38.8161 25.7729 38.8714 25.8956 38.9274 26.02L38.9283 26.022C39.1348 26.4807 39.352 26.963 39.5663 27.4825L39.5681 27.4867C39.7524 27.9245 39.9367 28.3624 40.098 28.8186C40.5418 29.9698 40.9626 31.1996 41.3278 32.4618C41.4186 32.7438 41.4912 33.0168 41.5647 33.2935L41.5648 33.2937C41.5961 33.4115 41.6276 33.5299 41.6607 33.65L41.7115 33.8719C41.8595 34.4591 41.9889 35.0416 42.0814 35.6288C42.1554 36.031 42.2247 36.4147 42.2617 36.8031L42.2617 36.8034C42.3172 37.2425 42.3727 37.6816 42.3912 38.1207C42.4282 38.523 42.4467 38.9437 42.4467 39.3459C42.4467 40.3723 42.3542 41.3617 42.1369 42.2956C42.1234 42.3455 42.1098 42.396 42.0962 42.4469C42.0352 42.6745 41.972 42.9104 41.8965 43.1371C41.828 43.3802 41.7392 43.6234 41.647 43.8759L41.647 43.876C41.6147 43.9643 41.5821 44.0539 41.5497 44.1449L41.5337 44.188C41.465 44.3731 41.3951 44.5615 41.3093 44.746C40.8516 45.8463 40.2829 46.9421 39.6958 47.9684C38.8358 49.4895 37.9713 50.8257 37.3656 51.6856C37.3287 51.7409 37.2928 51.7935 37.2581 51.8441L37.2579 51.8444C37.2145 51.908 37.173 51.9686 37.1345 52.0277C36.9449 52.2959 37.1391 52.675 37.4673 52.675H43.866V57.7283H37.3934C35.655 57.7283 34.0461 56.7435 33.2693 55.167C32.8671 54.3764 32.7099 53.5072 32.8024 52.6565C32.8255 52.4022 32.6359 52.1618 32.377 52.1618H19.3023C19.0803 52.1618 18.9 52.3421 18.9 52.564V52.8322C18.9 61.1727 25.6362 67.932 33.949 67.932H57.4031C61.7996 67.932 64.296 63.9256 66.7498 59.9878L66.7499 59.9876C67.4338 58.89 68.1145 57.7977 68.832 56.799C70.1219 55.0052 73.2242 53.5812 74.1304 53.1928C74.2783 53.1281 74.38 52.9801 74.38 52.8137ZM22.3953 46.2069L22.2011 46.512C22.0301 46.7756 22.2196 47.127 22.5432 47.127H34.5824C34.7165 47.127 34.8413 47.0622 34.9153 46.9513C35.0725 46.7109 35.2204 46.4612 35.3545 46.2069C36.3948 44.4593 37.3194 42.5683 37.6569 41.1721C38.4475 37.7786 36.76 32.3277 34.8043 27.9447C34.6749 27.6535 34.2726 27.6257 34.1016 27.8939L22.3953 46.2069Z" fill="url(#paint0_linear_101_19)"/>
<defs>
<linearGradient id="paint0_linear_101_19" x1="115.393" y1="-21" x2="-36.4018" y2="6.72316" gradientUnits="userSpaceOnUse">
<stop stop-color="#EA3944"/>
<stop offset="1" stop-color="#4F18F5"/>
</linearGradient>
</defs>
</svg>
