<svg width="32" height="32" viewBox="0 0 32 32" fill="none" xmlns="http://www.w3.org/2000/svg">
<path d="M32 6.25516C30.8232 6.77143 29.5591 7.12027 28.2301 7.27795C29.6013 6.46556 30.6272 5.18697 31.1164 3.68074C29.828 4.4384 28.418 4.97171 26.9476 5.25748C25.9588 4.21218 24.6491 3.51933 23.2218 3.28651C21.7945 3.0537 20.3296 3.29393 19.0543 3.96993C17.7791 4.64592 16.7649 5.71985 16.1693 7.02498C15.5737 8.3301 15.43 9.79341 15.7604 11.1877C13.1499 11.0579 10.5961 10.3862 8.26485 9.21595C5.93354 8.04575 3.87681 6.40329 2.22813 4.39515C1.66441 5.35795 1.34026 6.47423 1.34026 7.66306C1.33963 8.73329 1.60582 9.78712 2.11522 10.7311C2.62461 11.675 3.36145 12.4799 4.26037 13.0742C3.21786 13.0414 2.19836 12.7625 1.28671 12.2607V12.3445C1.2866 13.8455 1.81102 15.3003 2.77098 16.4621C3.73094 17.6239 5.06731 18.4211 6.55333 18.7184C5.58624 18.9776 4.57231 19.0157 3.58813 18.83C4.0074 20.1216 4.82409 21.251 5.92389 22.0602C7.02368 22.8693 8.35151 23.3177 9.72148 23.3426C7.39587 25.1502 4.52376 26.1306 1.56716 26.1263C1.04343 26.1265 0.520146 26.0962 0 26.0356C3.00111 27.9461 6.49462 28.96 10.0625 28.9561C22.1404 28.9561 28.7431 19.0519 28.7431 10.4621C28.7431 10.1831 28.736 9.9012 28.7233 9.62213C30.0076 8.70256 31.1162 7.56385 31.9972 6.25934L32 6.25516Z" fill="url(#paint0_linear_289_265)"/>
<defs>
<linearGradient id="paint0_linear_289_265" x1="41.0286" y1="-2.80974" x2="-12.0121" y2="9.22579" gradientUnits="userSpaceOnUse">
<stop stop-color="#EA3944"/>
<stop offset="1" stop-color="#4F18F5"/>
</linearGradient>
</defs>
</svg>
