<svg version="1.2" baseProfile="tiny-ps" xmlns="http://www.w3.org/2000/svg" viewBox="0 0 303 289" width="303" height="289">
	<title>vs-svg</title>
	<defs>
		<linearGradient id="grd1" gradientUnits="userSpaceOnUse"  x1="375.411" y1="-55.7" x2="-103.882" y2="35.684">
			<stop offset="0" stop-color="#ea3944"  />
			<stop offset="1" stop-color="#4f18f5"  />
		</linearGradient>
	</defs>
	<style>
		tspan { white-space:pre }
		.shp0 { fill: none;stroke: url(#grd1);stroke-width: 16 } 
	</style>
	<path id="Layer" class="shp0" d="M238.91 169.47C240.25 161.41 231.31 157.38 223.7 157.15C214.52 156.71 207.81 158.5 206.69 164.32C205.35 172.38 226.61 175.74 241.15 180.44C262.41 187.39 293.95 194.55 286.8 232.18C280.53 266.44 251.89 281 205.57 281C149.86 281 125.25 252.11 130.62 223.89C146.73 223.89 186.33 223.89 186.33 223.89C184.54 234.42 193.94 237.1 202.89 237.78C213.41 238.67 219.89 236.88 220.79 231.28C222.13 224.12 219.45 222.1 202.22 216.5C165.07 204.63 140.91 191.19 146.5 160.06C153.89 120.42 198.41 115.72 229.96 115.72C257.48 115.72 301.56 129.83 294.18 169.47C275.61 169.47 238.91 169.47 238.91 169.47Z" />
</svg>