<svg width="303" height="289" viewBox="0 0 303 289" fill="none" xmlns="http://www.w3.org/2000/svg">
<path d="M143.578 8L102.408 111.467H93.0108L79.3621 8H10L42.8911 164.768H136.642L219.429 8H143.578Z" stroke="url(#paint0_linear_560_669)" stroke-width="16"/>
<path d="M294.178 169.471C301.562 129.831 257.484 115.722 229.962 115.722C198.414 115.722 153.888 120.425 146.504 160.065C140.91 191.194 165.075 204.632 202.218 216.501C219.446 222.1 222.131 224.116 220.789 231.282C219.894 236.881 213.405 238.673 202.889 237.777C193.939 237.105 184.541 234.418 186.331 223.892C186.331 223.892 146.728 223.892 130.618 223.892C125.248 252.11 149.86 281 205.574 281C251.89 281 280.53 266.443 286.795 232.178C293.955 194.554 262.406 187.387 241.15 180.445C226.606 175.742 205.35 172.382 206.693 164.32C207.811 158.497 214.524 156.705 223.698 157.153C231.305 157.377 240.255 161.409 238.912 169.471C238.912 169.471 275.607 169.471 294.178 169.471Z" stroke="url(#paint1_linear_560_669)" stroke-width="16"/>
<defs>
<linearGradient id="paint0_linear_560_669" x1="375.411" y1="-55.6999" x2="-103.882" y2="35.6839" gradientUnits="userSpaceOnUse">
<stop stop-color="#EA3944"/>
<stop offset="1" stop-color="#4F18F5"/>
</linearGradient>
<linearGradient id="paint1_linear_560_669" x1="375.411" y1="-55.6999" x2="-103.882" y2="35.6839" gradientUnits="userSpaceOnUse">
<stop stop-color="#EA3944"/>
<stop offset="1" stop-color="#4F18F5"/>
</linearGradient>
</defs>
</svg>
